<?xml version="1.0" encoding="UTF-8"?>
<svg width="99px" height="37px" viewBox="0 0 99 37" version="1.1" xmlns="http://www.w3.org/2000/svg" xmlns:xlink="http://www.w3.org/1999/xlink">
    <title>Fill 1</title>
    <g id="2021" stroke="none" stroke-width="1" fill="none" fill-rule="evenodd">
        <g id="EA_4b-Copy" transform="translate(-31.000000, -21.000000)" fill="#FFFFFF">
            <path d="M105.07812,31.0725806 L104.898053,31.0725806 L104.898053,31.2459122 L104.898053,38.8593706 L90.4708866,38.8593706 L90.4708866,31.2459122 L90.4708866,31.0725806 L90.2908199,31.0725806 L89.0780976,31.0725806 L88.8966667,31.0725806 L88.8966667,31.2459122 L88.8966667,49.5927975 L88.8966667,49.766129 L89.0780976,49.766129 L90.2908199,49.766129 L90.4708866,49.766129 L90.4708866,49.5927975 L90.4708866,40.3011742 L104.898053,40.3011742 L104.898053,49.5927975 L104.898053,49.766129 L105.07812,49.766129 L106.292206,49.766129 L106.470909,49.766129 L106.470909,49.5927975 L106.470909,31.2459122 L106.470909,31.0725806 L106.292206,31.0725806 L105.07812,31.0725806 Z M129.403881,40.5812453 L122.111808,40.5812453 L121.948442,40.5812453 L121.948442,40.7514542 L121.948442,41.8187794 L121.948442,41.9877086 L122.111808,41.9877086 L128.132843,41.9877086 C128.028882,44.018698 127.298685,45.4993877 125.840765,46.6396596 C124.447202,47.7325802 122.720718,48.3596657 121.10067,48.3596657 C116.939783,48.3596657 113.423697,44.7238493 113.423697,40.418715 C113.423697,36.1890869 117.012802,32.479044 121.10067,32.479044 C123.720718,32.479044 126.043735,33.8163999 127.640269,36.2453966 L127.740516,36.396409 L127.877892,36.2825098 L128.772693,35.5479239 L128.896456,35.4455426 L128.802396,35.3137266 C126.778883,32.4995202 124.212054,31.0725806 121.171215,31.0725806 C116.111813,31.0725806 111.994242,35.2970897 111.994242,40.4903819 C111.994242,45.5185842 116.13409,49.766129 121.033839,49.766129 C123.235569,49.766129 125.38037,48.9432392 127.078388,47.448472 C129.266505,45.4789115 129.568485,43.2482786 129.568485,41.1302651 L129.568485,40.7514542 L129.568485,40.5812453 L129.403881,40.5812453 Z M46.9003989,31.0725806 L46.7184848,31.0725806 L46.7184848,31.2459122 L46.7184848,32.3410527 L46.7184848,32.5143843 L46.9003989,32.5143843 L51.6990719,32.5143843 L51.6990719,49.5927975 L51.6990719,49.766129 L51.880986,49.766129 L53.1047716,49.766129 L53.2880638,49.766129 L53.2880638,49.5927975 L53.2880638,32.5143843 L58.0867368,32.5143843 L58.2672727,32.5143843 L58.2672727,32.3410527 L58.2672727,31.2459122 L58.2672727,31.0725806 L58.0867368,31.0725806 L46.9003989,31.0725806 Z M31.352969,21.7258065 L31.1527273,21.7258065 L31.1527273,21.8938542 L31.1527273,57.469049 L31.1527273,57.6370968 L31.352969,57.6370968 L32.9594534,57.6370968 L33.1612121,57.6370968 L33.1612121,57.469049 L33.1612121,21.8938542 L33.1612121,21.7258065 L32.9594534,21.7258065 L31.352969,21.7258065 Z M81.1847957,31.5434047 L81.3648485,31.5434047 L81.3648485,31.7048301 L81.3648485,49.3576739 L81.3648485,49.766129 L81.0511202,49.4677367 L65.3633398,34.5150992 L65.3633398,48.7914621 L65.3633398,48.9528875 L65.1846511,48.9528875 L63.9706588,48.9528875 L63.7906061,48.9528875 L63.7906061,48.7914621 L63.7906061,31.4785899 L63.7906061,31.0725806 L64.1016063,31.3685272 L79.7893867,46.209879 L79.7893867,31.7048301 L79.7893867,31.5434047 L79.9694395,31.5434047 L81.1847957,31.5434047 Z" id="Fill-1"></path>
        </g>
    </g>
</svg>